<svg id="visual" viewBox="0 0 900 600" width="900" height="600" xmlns="http://www.w3.org/2000/svg" xmlns:xlink="http://www.w3.org/1999/xlink" version="1.1"><rect x="0" y="0" width="900" height="600" fill="#ffffff"></rect><g fill="#000000"><path d="M0 -68L15.3 -21L64.6 -21L24.7 8L39.9 55L0 26L-39.9 55L-24.7 8L-64.6 -21L-15.3 -21Z" transform="translate(57 385)"></path><path d="M0 -38.7L8.7 -12L36.8 -12L14.1 4.6L22.7 31.3L0 14.8L-22.7 31.3L-14.1 4.6L-36.8 -12L-8.7 -12Z" transform="translate(507 397)"></path><path d="M0 -63.2L14.2 -19.5L60.1 -19.5L23 7.5L37.2 51.2L0 24.2L-37.2 51.2L-23 7.5L-60.1 -19.5L-14.2 -19.5Z" transform="translate(360 304)"></path><path d="M0 -56.6L12.7 -17.5L53.9 -17.5L20.6 6.7L33.3 45.8L0 21.6L-33.3 45.8L-20.6 6.7L-53.9 -17.5L-12.7 -17.5Z" transform="translate(161 569)"></path><path d="M0 -55.7L12.5 -17.2L53 -17.2L20.2 6.6L32.7 45.1L0 21.3L-32.7 45.1L-20.2 6.6L-53 -17.2L-12.5 -17.2Z" transform="translate(877 289)"></path><path d="M0 -40.6L9.1 -12.5L38.6 -12.5L14.7 4.8L23.9 32.8L0 15.5L-23.9 32.8L-14.7 4.8L-38.6 -12.5L-9.1 -12.5Z" transform="translate(828 92)"></path><path d="M0 -50L11.2 -15.5L47.6 -15.5L18.2 5.9L29.4 40.5L0 19.1L-29.4 40.5L-18.2 5.9L-47.6 -15.5L-11.2 -15.5Z" transform="translate(667 277)"></path><path d="M0 -51.9L11.7 -16L49.4 -16L18.9 6.1L30.5 42L0 19.8L-30.5 42L-18.9 6.1L-49.4 -16L-11.7 -16Z" transform="translate(545 101)"></path><path d="M0 -51.9L11.7 -16L49.4 -16L18.9 6.1L30.5 42L0 19.8L-30.5 42L-18.9 6.1L-49.4 -16L-11.7 -16Z" transform="translate(355 465)"></path><path d="M0 -61.3L13.8 -19L58.3 -19L22.3 7.2L36.1 49.6L0 23.4L-36.1 49.6L-22.3 7.2L-58.3 -19L-13.8 -19Z" transform="translate(836 483)"></path><path d="M0 -44.4L10 -13.7L42.2 -13.7L16.1 5.2L26.1 35.9L0 16.9L-26.1 35.9L-16.1 5.2L-42.2 -13.7L-10 -13.7Z" transform="translate(250 79)"></path><path d="M0 -53.8L12.1 -16.6L51.2 -16.6L19.5 6.4L31.6 43.5L0 20.5L-31.6 43.5L-19.5 6.4L-51.2 -16.6L-12.1 -16.6Z" transform="translate(212 406)"></path><path d="M0 -38.7L8.7 -12L36.8 -12L14.1 4.6L22.7 31.3L0 14.8L-22.7 31.3L-14.1 4.6L-36.8 -12L-8.7 -12Z" transform="translate(577 583)"></path><path d="M0 -65.1L14.6 -20.1L61.9 -20.1L23.7 7.7L38.3 52.7L0 24.9L-38.3 52.7L-23.7 7.7L-61.9 -20.1L-14.6 -20.1Z" transform="translate(87 160)"></path><path d="M0 -40.6L9.1 -12.5L38.6 -12.5L14.7 4.8L23.9 32.8L0 15.5L-23.9 32.8L-14.7 4.8L-38.6 -12.5L-9.1 -12.5Z" transform="translate(414 14)"></path><path d="M0 -54.7L12.3 -16.9L52.1 -16.9L19.9 6.5L32.2 44.3L0 20.9L-32.2 44.3L-19.9 6.5L-52.1 -16.9L-12.3 -16.9Z" transform="translate(397 158)"></path><path d="M0 -52.9L11.9 -16.3L50.3 -16.3L19.2 6.2L31.1 42.8L0 20.2L-31.1 42.8L-19.2 6.2L-50.3 -16.3L-11.9 -16.3Z" transform="translate(680 473)"></path><path d="M0 -47.2L10.6 -14.6L44.9 -14.6L17.1 5.6L27.7 38.2L0 18L-27.7 38.2L-17.1 5.6L-44.9 -14.6L-10.6 -14.6Z" transform="translate(60 3)"></path><path d="M0 -55.7L12.5 -17.2L53 -17.2L20.2 6.6L32.7 45.1L0 21.3L-32.7 45.1L-20.2 6.6L-53 -17.2L-12.5 -17.2Z" transform="translate(20 594)"></path><path d="M0 -54.7L12.3 -16.9L52.1 -16.9L19.9 6.5L32.2 44.3L0 20.9L-32.2 44.3L-19.9 6.5L-52.1 -16.9L-12.3 -16.9Z" transform="translate(432 586)"></path><path d="M0 -50L11.2 -15.5L47.6 -15.5L18.2 5.9L29.4 40.5L0 19.1L-29.4 40.5L-18.2 5.9L-47.6 -15.5L-11.2 -15.5Z" transform="translate(678 36)"></path></g></svg>