<?xml version="1.0" standalone="no"?>
<!DOCTYPE svg PUBLIC "-//W3C//DTD SVG 20010904//EN"
 "http://www.w3.org/TR/2001/REC-SVG-20010904/DTD/svg10.dtd">
<svg version="1.0" xmlns="http://www.w3.org/2000/svg"
 width="1280.000000pt" height="853.000000pt" viewBox="0 0 1280.000000 853.000000"
 preserveAspectRatio="xMidYMid meet">
<metadata>
Created by potrace 1.15, written by Peter Selinger 2001-2017
</metadata>
<g transform="translate(0.000000,853.000000) scale(0.100000,-0.100000)"
fill="#000000" stroke="none">
<path d="M730 8188 c-13 -7 -35 -29 -48 -48 -30 -44 -25 -100 12 -139 l26 -27
0 -2117 c0 -1687 3 -2117 13 -2117 6 0 -25 -18 -71 -40 -259 -127 -393 -434
-302 -694 56 -163 205 -296 396 -352 90 -27 239 -24 334 5 238 73 440 252 652
576 l79 120 -6 -115 c-12 -208 31 -421 125 -617 176 -371 488 -604 903 -678
131 -23 373 -16 495 14 108 27 288 98 410 161 300 154 507 407 622 760 49 150
64 238 63 385 0 124 -25 261 -59 326 l-15 31 -31 -41 c-43 -59 -66 -128 -80
-236 -11 -90 -28 -120 -28 -51 0 45 -32 165 -69 261 -62 162 -201 340 -337
432 -231 157 -513 224 -741 177 -101 -21 -164 -46 -246 -101 -295 -196 -344
-608 -102 -848 88 -88 156 -118 275 -123 130 -5 191 17 277 103 51 52 64 72
82 129 41 133 17 251 -68 336 -98 98 -254 108 -344 22 -99 -93 -92 -269 12
-339 36 -25 63 -31 43 -11 -21 21 -13 65 23 117 l35 50 -25 25 c-64 64 8 158
122 158 61 0 130 -43 163 -102 21 -38 25 -58 25 -130 0 -71 -4 -94 -26 -141
-54 -115 -144 -172 -279 -177 -116 -5 -179 19 -266 100 -204 192 -202 504 7
710 194 192 509 220 826 73 321 -148 512 -442 529 -815 18 -360 -167 -757
-451 -968 -413 -306 -1075 -240 -1433 143 -130 138 -231 320 -279 502 -34 132
-43 362 -19 503 30 173 99 345 197 495 64 96 219 255 308 315 352 236 865 310
1291 186 472 -137 832 -497 965 -965 50 -177 59 -253 59 -471 0 -230 -15 -324
-79 -518 -190 -570 -729 -1046 -1285 -1135 -135 -22 -274 -31 -265 -18 3 6 15
11 25 11 26 0 169 53 265 98 l80 38 -125 0 c-139 0 -214 15 -310 64 l-56 28
-54 -18 c-83 -28 -214 -43 -309 -35 -257 20 -502 140 -725 355 -234 226 -363
475 -426 825 l-20 110 6 -80 c11 -167 81 -417 165 -591 145 -299 379 -551 684
-736 193 -118 361 -189 734 -312 283 -93 380 -136 437 -193 106 -106 112 -292
11 -391 -100 -98 -242 -95 -330 8 -31 36 -37 51 -37 88 0 35 6 49 29 73 17 17
40 29 55 29 23 0 26 4 26 33 0 18 -5 38 -12 45 -9 9 -9 12 4 12 8 0 36 18 61
40 25 22 50 40 55 40 6 0 13 4 17 10 12 19 -74 32 -128 19 -180 -43 -223 -318
-72 -458 136 -126 366 -71 452 107 23 49 27 70 26 142 0 115 -27 185 -102 263
-72 76 -169 123 -441 216 -173 60 -196 70 -145 64 105 -12 346 -6 450 11 55 9
141 27 190 41 50 13 151 39 225 56 154 36 363 105 529 173 62 26 115 45 116
44 1 -2 17 -32 36 -68 108 -207 372 -343 602 -311 207 29 312 96 717 455 85
76 199 171 253 211 263 198 566 292 851 265 128 -13 200 -32 315 -87 76 -36
108 -59 170 -121 43 -42 89 -98 104 -125 29 -54 27 -60 -9 -17 -14 16 -55 44
-92 62 -61 30 -74 33 -162 33 -85 -1 -102 -4 -162 -32 -39 -19 -85 -50 -111
-77 -222 -232 -112 -620 209 -738 89 -32 255 -31 344 3 184 70 319 227 379
439 l18 65 2097 3 2098 2 36 -30 c30 -24 46 -30 85 -30 42 0 54 5 83 34 30 30
34 40 34 84 0 41 -5 55 -28 80 -49 52 -127 55 -172 7 l-23 -25 -2099 0 -2098
0 0 49 c0 26 -7 88 -15 136 -86 489 -586 838 -1216 847 -98 2 -119 4 -114 16
3 8 10 46 16 84 12 77 6 169 -16 242 -8 25 -10 46 -5 46 4 0 10 -4 12 -9 8
-24 283 -269 354 -317 292 -195 574 -205 750 -29 227 226 143 625 -131 629
-48 1 -69 -4 -106 -26 -52 -31 -105 -102 -115 -155 -18 -93 24 -186 100 -223
65 -31 103 -26 175 22 58 39 61 43 44 56 -24 18 -68 8 -109 -23 -40 -30 -48
-31 -34 -4 24 44 -20 58 -105 34 -33 -9 -48 10 -52 67 -4 42 0 62 19 97 65
121 201 149 301 61 60 -53 82 -111 81 -210 -3 -169 -100 -303 -256 -352 -111
-34 -225 -21 -370 44 l-73 33 53 6 c88 11 161 89 162 173 0 23 -3 27 -17 21
-10 -4 -44 -12 -75 -18 -129 -24 -251 36 -567 280 -168 129 -236 172 -342 213
-190 73 -468 96 -631 52 -206 -56 -395 -183 -552 -372 -78 -93 -154 -204 -201
-291 l-30 -57 0 242 c0 272 -14 375 -81 574 -114 341 -355 643 -698 873 -156
105 -287 170 -601 296 -143 58 -290 121 -327 139 -115 58 -165 116 -203 232
l-17 54 -29 -28 c-46 -44 -79 -120 -79 -182 0 -45 -4 -57 -24 -73 -31 -24 -66
-96 -66 -136 0 -36 36 -93 70 -111 19 -9 85 -11 285 -8 223 4 240 3 120 -5
-347 -22 -621 -107 -855 -263 -46 -31 -83 -56 -84 -56 -1 0 -1 39 -1 88 0 105
-28 173 -99 250 -70 75 -134 105 -233 110 -74 4 -88 2 -138 -22 -32 -16 -70
-45 -91 -71 -140 -172 -70 -422 126 -450 65 -9 100 6 100 46 0 43 -33 93 -74
113 -19 9 -39 16 -45 16 -22 0 -81 63 -97 105 -18 49 -14 114 11 152 8 12 36
35 62 50 41 24 59 28 123 28 91 -1 153 -29 219 -100 64 -69 85 -124 85 -220 0
-108 -29 -172 -126 -272 -40 -41 -77 -81 -81 -89 -11 -19 -108 -68 -176 -88
-112 -33 -213 -45 -630 -77 -126 -9 -214 -20 -366 -44 l-40 -7 2 2103 c3 2082
3 2103 23 2124 71 75 30 192 -72 202 -24 2 -54 -2 -68 -9z m1157 -4429 c-30
-46 -86 -142 -124 -214 -211 -395 -424 -641 -636 -735 -283 -125 -601 5 -673
275 -49 182 33 391 178 456 80 35 204 34 274 -3 98 -52 137 -122 132 -239 -2
-63 -8 -83 -33 -124 -34 -55 -83 -85 -150 -93 -55 -6 -89 14 -105 62 -10 31
-8 43 15 98 43 100 50 132 39 169 -8 28 -14 33 -34 30 -45 -6 -100 -41 -124
-79 -34 -53 -40 -93 -22 -155 40 -138 197 -206 331 -143 97 45 149 135 150
261 0 66 -5 89 -26 135 -51 106 -152 177 -274 190 -57 6 -59 7 -32 18 82 35
284 65 622 92 244 20 423 46 501 74 21 7 40 12 42 11 2 -2 -21 -40 -51 -86z
m4228 -409 c159 -50 325 -163 390 -265 19 -29 46 -89 61 -132 23 -69 26 -90
22 -183 -5 -145 -14 -160 -102 -177 -119 -21 -255 -73 -439 -166 -169 -86
-179 -89 -204 -76 -54 28 -142 120 -170 177 -25 51 -28 68 -28 157 0 81 4 111
23 158 56 139 168 220 301 219 157 -1 261 -94 261 -235 0 -143 -108 -250 -219
-217 -19 5 -37 8 -39 5 -2 -2 14 -9 37 -15 146 -39 280 143 229 311 -38 129
-213 208 -363 164 -142 -41 -237 -158 -265 -326 -27 -157 44 -320 175 -407 33
-22 42 -32 32 -39 -26 -21 -511 -306 -527 -310 -10 -3 -21 6 -30 22 -25 46
-117 122 -178 146 -72 29 -241 33 -309 7 -24 -8 -43 -12 -43 -6 0 5 11 30 24
56 12 26 31 70 42 97 25 68 166 326 220 402 165 231 380 369 629 402 63 9 57
9 -60 7 -111 -2 -142 -7 -210 -30 -44 -15 -102 -40 -129 -57 -27 -16 -50 -28
-52 -26 -8 8 163 169 226 214 85 59 187 108 280 133 104 28 312 23 415 -10z
m884 -821 c386 -64 706 -283 845 -580 48 -101 67 -176 73 -292 23 -409 -230
-717 -571 -694 -138 9 -242 63 -332 174 -64 79 -88 149 -89 263 0 86 3 101 31
161 57 120 137 184 259 209 116 24 234 -9 305 -86 43 -47 54 -70 71 -142 28
-127 -49 -242 -163 -242 -78 0 -138 42 -138 99 0 23 50 78 119 129 25 19 31
31 31 61 0 46 -14 61 -57 61 -45 0 -107 -60 -123 -120 -23 -86 18 -188 91
-225 15 -8 52 -15 82 -15 98 0 157 61 177 183 15 88 4 161 -38 251 -106 224
-360 367 -682 383 -201 10 -378 -27 -566 -116 -171 -82 -282 -163 -549 -406
-350 -318 -474 -396 -666 -420 -188 -23 -434 100 -531 266 -53 90 -55 86 96
158 l133 63 62 -45 c203 -150 448 -13 440 245 l-2 68 297 179 298 179 51 -14
c69 -18 199 -18 272 1 132 35 265 127 334 232 28 42 38 49 74 54 65 9 240 -1
366 -22z m-1908 -400 c63 -30 125 -82 151 -127 l18 -30 -98 -54 c-134 -76
-312 -170 -312 -166 0 2 9 21 20 43 25 49 25 87 1 109 -15 14 -18 23 -11 41 5
12 6 53 2 90 l-7 67 -27 -21 c-30 -24 -64 -102 -54 -127 4 -10 -3 -23 -19 -36
-21 -16 -25 -28 -25 -71 0 -30 9 -70 20 -95 l20 -43 -118 -55 c-64 -31 -121
-56 -127 -57 -15 -3 -23 91 -13 168 6 50 15 79 34 105 14 19 55 79 90 132 87
132 140 159 304 155 79 -2 105 -7 151 -28z m199 -293 c0 -185 -140 -310 -307
-276 -56 12 -136 64 -141 92 -2 11 40 38 150 96 84 43 180 96 213 115 33 20
66 36 73 37 8 0 12 -19 12 -64z"/>
<path d="M5944 2931 c-67 -41 -96 -170 -54 -238 27 -46 32 -41 7 8 -27 54 -13
99 48 159 27 27 45 53 45 67 0 28 -6 28 -46 4z"/>
<path d="M5930 2646 c0 -2 8 -10 18 -17 15 -13 16 -12 3 4 -13 16 -21 21 -21
13z"/>
<path d="M6643 1986 c-103 -27 -229 -89 -291 -141 -45 -39 -82 -106 -82 -149
0 -17 11 -39 29 -57 24 -23 38 -29 73 -29 72 0 126 25 248 115 257 190 402
223 640 146 52 -16 96 -28 98 -26 10 10 -159 96 -246 126 -88 30 -110 33 -237
36 -123 3 -151 0 -232 -21z"/>
</g>
</svg>
